<svg id="Group_91399" data-name="Group 91399" xmlns="http://www.w3.org/2000/svg" xmlns:xlink="http://www.w3.org/1999/xlink" width="39.427" height="39.438" viewBox="0 0 39.427 39.438">
  <defs>
    <clipPath id="clip-path">
      <rect id="Rectangle_13" data-name="Rectangle 13" width="39.427" height="39.438"/>
    </clipPath>
  </defs>
  <g id="Group_7" data-name="Group 7" clip-path="url(#clip-path)">
    <path id="Path_40" data-name="Path 40" d="M0,262.487c1.032.942,2.033,1.921,3.1,2.82a33.8,33.8,0,0,0,10.536,6.226,14.156,14.156,0,0,0,6.007.944c-.057.5-.107.959-.164,1.421q-.416,3.34-.838,6.679a1.169,1.169,0,0,1-1.229,1.084q-6.929.006-13.859,0a1.176,1.176,0,0,1-1.249-1.1q-.66-5.151-1.31-10.3-.465-3.663-.933-7.326A.5.5,0,0,0,0,262.8v-.308" transform="translate(0 -242.231)"/>
    <path id="Path_41" data-name="Path 41" d="M365.333,0a1.479,1.479,0,0,1,.858,1.55c-.019,5.5-.01,11.006-.01,16.509v.5c.38,0,.735,0,1.089,0a1.159,1.159,0,0,1,1.219,1.2c.007.356,0,.712,0,1.088H361.6a9.382,9.382,0,0,1,.015-1.427,1.065,1.065,0,0,1,1.085-.86c.37-.011.741,0,1.166,0V18.1c0-5.516.009-11.032-.011-16.547A1.482,1.482,0,0,1,364.717,0Z" transform="translate(-333.679)" fill="#cd001a"/>
    <path id="Path_42" data-name="Path 42" d="M215.406,0c.135.036.269.074.4.109a3.481,3.481,0,1,1-1.8.029c.159-.045.318-.091.476-.137Z" transform="translate(-195.15)"/>
    <path id="Path_43" data-name="Path 43" d="M309.7,314.109c-.446.669-.858,1.271-1.253,1.884a1.327,1.327,0,0,1-1.22.656c-1.437-.013-2.875,0-4.312-.005a1.173,1.173,0,0,1-1.2-1.647c.535-1.751,1.119-3.49,1.568-5.263a24.518,24.518,0,0,0,.647-5.8,3.44,3.44,0,0,1,2.991-3.5,5.372,5.372,0,0,1,.844-.038q2.06-.005,4.119,0a3.446,3.446,0,0,1,3.593,3.548,30.236,30.236,0,0,0,1.957,10.3c.114.313.223.629.31.95a1.122,1.122,0,0,1-1.032,1.443c-1.591.027-3.182.016-4.774,0a1.128,1.128,0,0,1-.94-.587c-.414-.63-.837-1.255-1.294-1.94" transform="translate(-278.352 -277.211)" fill="#cd001a"/>
    <path id="Path_44" data-name="Path 44" d="M39.858,252.126l.279-2.275c-3.791.347-7.016-1.169-10.148-2.941a36.479,36.479,0,0,1-7.922-6.183c-.052-.053-.1-.11-.184-.2.138-.011.232-.025.327-.025q8.814,0,17.628,0a1.192,1.192,0,0,1,1.028.419,15.815,15.815,0,0,1,2.924,5.452,5.3,5.3,0,0,1,.093,2.663,4.024,4.024,0,0,1-3.3,3.01c-.161.039-.327.063-.491.088a1.845,1.845,0,0,1-.231,0m.876-7.009-.575,4.6a1.616,1.616,0,0,0,1.526-1.529,5.482,5.482,0,0,0-.951-3.075" transform="translate(-20.194 -221.934)"/>
    <path id="Path_45" data-name="Path 45" d="M95.44,99.146A4.639,4.639,0,0,1,90.827,94.5a4.7,4.7,0,0,1,4.642-4.676,4.77,4.77,0,0,1,4.677,4.705,4.7,4.7,0,0,1-4.706,4.613" transform="translate(-83.818 -82.896)"/>
  </g>
</svg>
