<svg id="Group_91401" data-name="Group 91401" xmlns="http://www.w3.org/2000/svg" xmlns:xlink="http://www.w3.org/1999/xlink" width="36.866" height="33.22" viewBox="0 0 36.866 33.22">
  <defs>
    <clipPath id="clip-path">
      <rect id="Rectangle_1" data-name="Rectangle 1" width="36.866" height="33.22"/>
    </clipPath>
  </defs>
  <g id="Group_1" data-name="Group 1" clip-path="url(#clip-path)">
    <path id="Path_5" data-name="Path 5" d="M14.126.022v3.64c-.134.006-.268.018-.4.018-2.106,0-4.212-.005-6.318,0a1.837,1.837,0,0,0-.556,3.6,2.583,2.583,0,0,0,.725.1c2.036.007,4.071,0,6.107,0h.433c.025.15.038.275.066.4A1.842,1.842,0,0,0,16.018,9.22c1.919,0,3.837,0,5.756,0h.384l.007.039c-.138.04-.277.076-.412.122A3.077,3.077,0,0,0,19.668,12.4q-.007,3.954,0,7.908,0,5.061,0,10.123a3.98,3.98,0,0,0,.641,2.77h-.463c-5.92,0-11.84-.016-17.76.014A1.974,1.974,0,0,1,0,31.154Q.028,16.6.011,2.052A1.855,1.855,0,0,1,1.387.062,2.049,2.049,0,0,1,1.906,0Q7.856,0,13.8,0c.1,0,.2.013.321.021m.018,17.173h3.664c0-1.911.015-3.8-.009-5.679a1.14,1.14,0,0,0-1.125-1.052c-.4-.021-.795-.009-1.192-.007a1.219,1.219,0,0,0-1.337,1.355q0,2.511,0,5.022v.361m-2.481,9.87h6.491c.6,0,.914-.22.9-.636s-.308-.6-.9-.6q-6.491,0-12.981,0a1.548,1.548,0,0,0-.449.047.547.547,0,0,0-.407.551.554.554,0,0,0,.4.588,1.5,1.5,0,0,0,.448.049q3.245,0,6.491,0m.037-8.621H5.209a2.964,2.964,0,0,0-.315,0,.616.616,0,0,0,0,1.23,2.457,2.457,0,0,0,.28,0q6.508,0,13.016,0a1.567,1.567,0,0,0,.449-.048.558.558,0,0,0,.411-.587.552.552,0,0,0-.41-.553,1.628,1.628,0,0,0-.449-.048q-3.245,0-6.491,0m0,4.921H5.174a2.217,2.217,0,0,0-.315.008.615.615,0,0,0,0,1.222,2.436,2.436,0,0,0,.35.009H17.662c.257,0,.515.01.772,0a.6.6,0,0,0,.6-.494c.1-.418-.22-.74-.74-.74q-3.3,0-6.6,0m-.009,6.161h6.455c.608,0,.915-.213.908-.63s-.3-.61-.892-.61H5.182a2.039,2.039,0,0,0-.35.013.605.605,0,0,0-.51.686c.04.353.3.54.773.54h6.6M9.227,17.2c0-1.271.019-2.5-.007-3.726A1.191,1.191,0,0,0,7.983,12.3c-.362-.008-.724,0-1.086,0a1.24,1.24,0,0,0-1.363,1.372q0,1.6,0,3.192c0,.112.011.223.018.337Zm4.294,0c0-.866.018-1.7-.006-2.527a1.2,1.2,0,0,0-1.161-1.145c-.443-.023-.889-.02-1.333,0a1.126,1.126,0,0,0-1.129.927c-.057.905-.016,1.817-.016,2.747Z" transform="translate(0 0)"/>
    <path id="Path_6" data-name="Path 6" d="M78.419,50.59q0-4.675,0-9.349a1.841,1.841,0,0,1,1.983-2q6,0,12,0a1.832,1.832,0,0,1,1.982,1.965q.007,9.4,0,18.8a1.838,1.838,0,0,1-2,1.98q-5.984,0-11.968,0a1.845,1.845,0,0,1-2-2.018q0-4.692,0-9.384M86.426,41.7c-1.427,0-2.854-.006-4.282,0a1.8,1.8,0,0,0-1.861,1.607,4.141,4.141,0,0,0,.009,1.119A1.787,1.787,0,0,0,82.08,46q4.316.022,8.633,0A1.806,1.806,0,0,0,92.5,44.547a4.488,4.488,0,0,0,.04-.875A1.827,1.827,0,0,0,90.567,41.7q-2.071,0-4.141,0m6.113,13.843c0-.925.008-1.85,0-2.775a1.187,1.187,0,0,0-1.186-1.222c-.444-.016-.889-.018-1.333,0a1.174,1.174,0,0,0-1.147,1.185q-.015,2.793,0,5.586a1.185,1.185,0,0,0,1.2,1.2c.386.011.772.007,1.158,0a1.211,1.211,0,0,0,1.309-1.315c0-.89,0-1.78,0-2.67M83.952,49.1c0-.188,0-.375,0-.562a1.246,1.246,0,0,0-1.3-1.309c-.386-.006-.772-.011-1.158,0a1.231,1.231,0,0,0-1.236,1.227c-.015.41-.014.82,0,1.23a1.236,1.236,0,0,0,1.225,1.239c.21.01.422-.011.631,0,1.41.1,1.939-.491,1.837-1.83m8.587-.025c0-.2,0-.4,0-.6a1.217,1.217,0,0,0-1.207-1.247c-.42-.016-.842-.017-1.262,0a1.215,1.215,0,0,0-1.2,1.251q-.01.6,0,1.194a1.215,1.215,0,0,0,1.205,1.248c.42.018.842.018,1.263,0a1.218,1.218,0,0,0,1.2-1.251c0-.2,0-.4,0-.6M82.128,55.851c-.211,0-.421,0-.631,0a1.219,1.219,0,0,0-1.237,1.217c-.015.421-.018.844,0,1.264a1.213,1.213,0,0,0,1.223,1.195c.409.01.819.01,1.228,0a1.21,1.21,0,0,0,1.235-1.182,12.807,12.807,0,0,0,0-1.3,1.219,1.219,0,0,0-1.258-1.2c-.187,0-.374,0-.561,0m6.119-6.759c0-.187,0-.375,0-.562a1.235,1.235,0,0,0-1.268-1.3q-.578-.012-1.158,0a1.216,1.216,0,0,0-1.252,1.2c-.019.432-.02.867,0,1.3A1.213,1.213,0,0,0,85.8,50.926c.409.014.819.015,1.228,0a1.23,1.23,0,0,0,1.223-1.272c0-.187,0-.375,0-.562M82.111,55.23c.187,0,.374,0,.561,0a1.229,1.229,0,0,0,1.275-1.22c.018-.421.019-.844,0-1.264a1.213,1.213,0,0,0-1.22-1.2c-.42-.012-.842-.013-1.263,0a1.207,1.207,0,0,0-1.2,1.178c-.022.432-.02.867,0,1.3a1.226,1.226,0,0,0,1.254,1.2c.2,0,.4,0,.6,0m4.262,4.3c.21,0,.421,0,.631,0a1.217,1.217,0,0,0,1.241-1.247q.011-.6,0-1.194a1.211,1.211,0,0,0-1.214-1.235c-.409-.01-.818-.009-1.227,0a1.2,1.2,0,0,0-1.237,1.21c-.017.421-.017.843,0,1.264a1.2,1.2,0,0,0,1.245,1.2c.187,0,.374,0,.561,0m.034-7.981v0c-.21,0-.421-.007-.631,0a1.192,1.192,0,0,0-1.2,1.169,12.482,12.482,0,0,0,0,1.369,1.189,1.189,0,0,0,1.161,1.141c.444.017.889.017,1.332,0a1.212,1.212,0,0,0,1.175-1.171c.017-.444.016-.89,0-1.334a1.2,1.2,0,0,0-1.134-1.169c-.233-.016-.468,0-.7,0" transform="translate(-57.524 -28.786)" fill="#cd001a"/>
    <path id="Path_7" data-name="Path 7" d="M57.729,1.69,65.1,9.214c-.188.01-.3.021-.411.021H58.553c-.732,0-.9-.176-.9-.918q0-3.108,0-6.216V1.729l.079-.039" transform="translate(-42.289 -1.24)"/>
    <path id="Path_8" data-name="Path 8" d="M100.407,5.193a4.912,4.912,0,1,0-7.43,4.98.952.952,0,0,0,.456.127c.713.013,1.426.006,2.139.006.69,0,1.38.013,2.069-.008a1.133,1.133,0,0,0,.582-.173,4.791,4.791,0,0,0,2.184-4.932M97.96,4.826a.314.314,0,0,1-.329.257c-.309,0-.618,0-.927,0-.131,0-.131,0-.166.126a1.745,1.745,0,0,1-1.65,1.242H94.7c.033.035.052.056.072.076q.684.685,1.368,1.369a.332.332,0,0,1,.04.479.325.325,0,0,1-.487.027c-.146-.141-.287-.286-.43-.429q-.8-.8-1.606-1.606a.324.324,0,0,1-.1-.375.306.306,0,0,1,.32-.224c.346,0,.693,0,1.039,0a1.015,1.015,0,0,0,.906-.583.882.882,0,0,0,.041-.1h-.1c-.629,0-1.258,0-1.887,0a.332.332,0,0,1-.333-.451.306.306,0,0,1,.264-.224,1.059,1.059,0,0,1,.12,0h1.931a.9.9,0,0,0-.192-.325,1.029,1.029,0,0,0-.851-.361c-.314.008-.629,0-.943,0a.341.341,0,0,1-.3-.516.378.378,0,0,1,.247-.171h3.854a.256.256,0,0,0,.036.014.324.324,0,0,1,.253.386.314.314,0,0,1-.327.287c-.392,0-.784,0-1.175,0h-.2c.019.033.035.056.047.081.079.177.162.352.232.532.022.056.043.072.1.072q.488,0,.975,0a.33.33,0,0,1,.341.421" transform="translate(-66.498 -0.794)" fill="#cd001a"/>
  </g>
</svg>
