<svg xmlns="http://www.w3.org/2000/svg" width="35" height="35" viewBox="0 0 35 35">
  <g id="Group_91859" data-name="Group 91859" transform="translate(-723 -3311)">
    <g id="Ellipse_5084" data-name="Ellipse 5084" transform="translate(723 3311)" fill="#a6a9ad" stroke="#fff" stroke-width="1">
      <circle cx="17.5" cy="17.5" r="17.5" stroke="none"/>
      <circle cx="17.5" cy="17.5" r="17" fill="none"/>
    </g>
    <g id="noun-wrench-and-screwdriver-5055003" transform="translate(628.697 3286.13)">
      <path id="Path_68195" data-name="Path 68195" d="M123.307,51.044a.258.258,0,0,0-.368,0l-.82.82L117.551,47.3l-.486-1.62a.26.26,0,0,0-.105-.143l-1.93-1.286a.262.262,0,0,0-.33.032l-.537.537a.261.261,0,0,0-.032.33l1.286,1.93a.259.259,0,0,0,.143.105l1.62.486,4.566,4.566-.82.82a.263.263,0,0,0,0,.37l6.1,6.1a1.683,1.683,0,1,0,2.381-2.379Z" transform="translate(-10.191 -10.24)" fill="#cd001a"/>
      <path id="Path_68196" data-name="Path 68196" d="M343,37.9l-.834-.834a1.178,1.178,0,0,1,0-1.669l1.637-1.637a3.679,3.679,0,0,0-4.56,4.56l-1.461,1.461.529.529.16-.16a1.2,1.2,0,0,1,1.69,0l1.128,1.128.454-.454a3.679,3.679,0,0,0,4.56-4.56L344.671,37.9a1.178,1.178,0,0,1-1.669,0Z" transform="translate(-226.391)"/>
      <path id="Path_68197" data-name="Path 68197" d="M110.077,270.226a1.2,1.2,0,0,1,0-1.69l.16-.16-.529-.529-5.647,5.647a1.77,1.77,0,1,0,2.5,2.5l4.641-4.641-1.128-1.128Zm-4.356,4.829a.507.507,0,1,1,0-.717.5.5,0,0,1,0,.717Z" transform="translate(0 -226.385)"/>
    </g>
  </g>
</svg>
