<svg xmlns="http://www.w3.org/2000/svg" width="35" height="35" viewBox="0 0 35 35">
  <g id="Group_91861" data-name="Group 91861" transform="translate(-723 -3455)">
    <g id="Ellipse_5086" data-name="Ellipse 5086" transform="translate(723 3455)" fill="#a6a9ad" stroke="#fff" stroke-width="1">
      <circle cx="17.5" cy="17.5" r="17.5" stroke="none"/>
      <circle cx="17.5" cy="17.5" r="17" fill="none"/>
    </g>
    <g id="noun-tear-398921" transform="translate(642.826 3424.208)">
      <path id="Path_68192" data-name="Path 68192" d="M331.905,44.8l-.85,1.11.434.867s.139.52.069.59c-.069.087-.486,1.041-.486,1.041l.5.8.225.555-.728.936-.5.139.728,1.145-.035.659-.364.59a4.3,4.3,0,0,1-.243.59,4.642,4.642,0,0,0,.5.971l.312.746-.641.59s-.052.364-.173.451a3.692,3.692,0,0,0-.26,1.023,4.293,4.293,0,0,1,.329.572c.035.156-.208.468-.208.468l6.8.867,1.769-13.768Z" transform="translate(-233.338 -3.801)"/>
      <path id="Path_68193" data-name="Path 68193" d="M89.6,41.07l6.641-.191-.659,1.231.572.8.156.572L96,44.59l.624.711.295.5-.59,1.04-.468.208.9,1.023.069.659-.277.642-.139.607.642.884.434.676-.555.676-.1.468-.1,1.041.4.52-.121.486-7.023.191Z" fill="#cd001a"/>
    </g>
  </g>
</svg>
