<svg xmlns="http://www.w3.org/2000/svg" width="33.105" height="33.485" viewBox="0 0 33.105 33.485">
  <g id="noun-maintenance-3444115" transform="translate(0)">
    <path id="Path_12" data-name="Path 12" d="M118.114,16.112H103.107a1.655,1.655,0,0,0-1.628-1.413H89.153A1.655,1.655,0,0,0,87.5,16.354V38.209a2.5,2.5,0,0,0,2.5,2.5h11.587l.033-1.986H90.03a.552.552,0,0,1-.519-.518V20.3h29.115v17.9a.552.552,0,0,1-.519.518h-12c0,.59,0,1.274.033,1.986h11.973a2.5,2.5,0,0,0,2.488-2.5v-19.6a2.5,2.5,0,0,0-2.488-2.5Zm-8.745,3.128h-3.112V17.083h3.128Zm4.618,0h-3.128V17.083h3.123Zm4.612,0h-3.128V17.083H118.6Z" transform="translate(-87.498 -14.699)"/>
    <path id="Path_13" data-name="Path 13" d="M294.79,206.891v.215h1.467v-2.444a2.686,2.686,0,0,0-1.467,2.229Z" transform="translate(-281.719 -192.684)" fill="#cd001a"/>
    <path id="Path_14" data-name="Path 14" d="M301.324,205.725a2.586,2.586,0,0,0,.7-1.766v-.679a2.609,2.609,0,0,0-2.113-2.555v2.538a.783.783,0,0,1-.784.805h-4.077a2.509,2.509,0,0,0,.822,1.854,2.031,2.031,0,0,1,.408.5,4.7,4.7,0,0,1,.474,1.655,6.843,6.843,0,0,1,.055.761l-.21,11.918a1.7,1.7,0,1,0,3.41.033l-.193-11.123a5.465,5.465,0,0,1,.177-1.473,5.65,5.65,0,0,1,1.335-2.472Zm-2.262-.784c0-.088.116-.166.248-.154s.2.077.2.16v.894c0,.083-.088.154-.2.16s-.248-.066-.248-.154Zm-.778,0c0-.094.116-.166.248-.154s.2.077.2.16v.894c0,.083-.088.154-.2.16s-.248-.066-.248-.154Zm-.778,0c0-.088.116-.166.248-.154s.2.077.2.16v.894c0,.083-.088.154-.2.16s-.248-.066-.248-.154Zm1.92,15.83h0a.49.49,0,1,1,.006,0Z" transform="translate(-281.958 -188.996)" fill="#cd001a"/>
    <path id="Path_15" data-name="Path 15" d="M240.971,135.6l1.319-.7-.4-2.3-1.479-.2-.629-1.1.552-1.385-1.771-1.484-1.258.822-1.186-.43-.458-1.423h-2.312l-.458,1.423-1.186.43-1.264-.795-1.771,1.484.552,1.385-.629,1.1-1.473.177-.4,2.279,1.319.7.221,1.241-1,1.1,1.169,2.019,1.462-.315.966.811-.055,1.49,1.308.474.039-2.317h0a6.5,6.5,0,0,0-.133-1.142,4.623,4.623,0,1,1,4.784.138,4.829,4.829,0,0,0-.32,1.821l.028,1.655,1.733-.629-.055-1.49.966-.811,1.462.315,1.153-2-1-1.1Z" transform="translate(-217.941 -120.291)" fill="#cd001a"/>
  </g>
</svg>
