<svg xmlns="http://www.w3.org/2000/svg" width="35" height="35" viewBox="0 0 35 35">
  <g id="Group_91860" data-name="Group 91860" transform="translate(-723 -3383)">
    <g id="Ellipse_5085" data-name="Ellipse 5085" transform="translate(723 3383)" fill="#a6a9ad" stroke="#fff" stroke-width="1">
      <circle cx="17.5" cy="17.5" r="17.5" stroke="none"/>
      <circle cx="17.5" cy="17.5" r="17" fill="none"/>
    </g>
    <g id="noun-service-maintenance-1701137" transform="translate(659.629 3384.362)">
      <path id="Path_68185" data-name="Path 68185" d="M94.787,14.608H94.6a4.306,4.306,0,0,1-2.287,1.543,3.766,3.766,0,0,1-.532.106,4.585,4.585,0,0,1-.266,1.463,2.525,2.525,0,0,1-.239.558A4.81,4.81,0,0,1,89.1,20.459l-.558.239a4.928,4.928,0,0,1-1.543.239,4.278,4.278,0,0,1-1.542-.266c-.027,0-.053-.027-.08-.027L83.91,22.108a8.021,8.021,0,0,0,1.2.479.464.464,0,0,1,.319.452v.9a.448.448,0,0,0,.452.452h2.181a.448.448,0,0,0,.452-.452v-.9a.489.489,0,0,1,.319-.452,6.068,6.068,0,0,0,1.356-.558.44.44,0,0,1,.532.08l.638.638a.434.434,0,0,0,.638,0L93.537,21.2a.434.434,0,0,0,0-.638l-.638-.638a.446.446,0,0,1-.08-.532,6.068,6.068,0,0,0,.558-1.356.464.464,0,0,1,.452-.319h.931a.448.448,0,0,0,.452-.452V15.087A.4.4,0,0,0,94.787,14.608ZM92.154,9.635l-1.2,1.2.4.957.957.4,1.2-1.2ZM88.085,7.88H85.9a.466.466,0,0,0-.452.452v.931a.431.431,0,0,1-.319.426,6.068,6.068,0,0,0-1.356.558.44.44,0,0,1-.532-.08l-.638-.638a.434.434,0,0,0-.638,0l-1.542,1.543a.434.434,0,0,0,0,.638l.638.638a.446.446,0,0,1,.08.532,6.068,6.068,0,0,0-.558,1.356.455.455,0,0,1-.426.319H79.2a.466.466,0,0,0-.452.452v2.181a.448.448,0,0,0,.452.452h.931a.431.431,0,0,1,.426.319,8.02,8.02,0,0,0,.479,1.2L82.5,17.694c0-.027-.027-.053-.027-.08a3.59,3.59,0,0,1-.266-1.463,4.278,4.278,0,0,1,.266-1.543,2.525,2.525,0,0,1,.239-.558,4.81,4.81,0,0,1,2.181-2.181l.558-.239a5.275,5.275,0,0,1,1.463-.266,3.42,3.42,0,0,1,.106-.505v-.027a4.325,4.325,0,0,1,1.543-2.314v-.16A.494.494,0,0,0,88.085,7.88Z" transform="translate(-6.09)"/>
      <path id="Path_68186" data-name="Path 68186" d="M102.4,21.829l.426-1.6a.164.164,0,0,0-.053-.186.209.209,0,0,0-.293,0l-2.128,2.128L98.57,21.4,97.8,19.6l2.128-2.128a.209.209,0,0,0,0-.293.234.234,0,0,0-.186-.027l-1.6.426a3.519,3.519,0,0,0-2.473,2.473,3.461,3.461,0,0,0,.213,2.367L89.1,29.169a1.993,1.993,0,1,0,1.7,1.7l6.755-6.755a3.447,3.447,0,0,0,2.367.213,3.553,3.553,0,0,0,2.473-2.5ZM88.172,31.8a.94.94,0,1,1,1.33-1.33.955.955,0,0,1,0,1.33A.931.931,0,0,1,88.172,31.8Z" transform="translate(-13.943 -8.976)" fill="#cd001a"/>
    </g>
  </g>
</svg>
