<svg xmlns="http://www.w3.org/2000/svg" width="42" height="42.875" viewBox="0 0 42 42.875">
  <g id="Group_91373" data-name="Group 91373" transform="translate(0)">
    <g id="Path_67978" data-name="Path 67978" transform="translate(0)" fill="none">
      <path d="M21,0A21.222,21.222,0,0,1,42,21.438,21.222,21.222,0,0,1,21,42.875,21.222,21.222,0,0,1,0,21.438,21.222,21.222,0,0,1,21,0Z" stroke="none"/>
      <path d="M 21 1 C 18.30215072631836 1 15.68534088134766 1.539241790771484 13.22225952148438 2.602741241455078 C 10.84131050109863 3.630779266357422 8.702461242675781 5.103050231933594 6.865119934082031 6.978679656982422 C 5.026371002197266 8.855739593505859 3.582668304443359 11.04170036315918 2.574119567871094 13.47583961486816 C 1.529609680175781 15.99678993225098 1 18.67547988891602 1 21.4375 C 1 24.19952011108398 1.529609680175781 26.87821006774902 2.574119567871094 29.39916038513184 C 3.582668304443359 31.83329963684082 5.026371002197266 34.01926040649414 6.865119934082031 35.89632034301758 C 8.702461242675781 37.77194976806641 10.84131050109863 39.24422073364258 13.22225952148438 40.27225875854492 C 15.68534088134766 41.33575820922852 18.30215072631836 41.875 21 41.875 C 23.69784927368164 41.875 26.31465911865234 41.33575820922852 28.77774047851562 40.27225875854492 C 31.15869140625 39.24422073364258 33.29753875732422 37.77194976806641 35.13488006591797 35.89632034301758 C 36.97362899780273 34.01926040649414 38.41733169555664 31.83329963684082 39.42588043212891 29.39916038513184 C 40.47039031982422 26.87821006774902 41 24.19952011108398 41 21.4375 C 41 18.67547988891602 40.47039031982422 15.99678993225098 39.42588043212891 13.47583961486816 C 38.41733169555664 11.04170036315918 36.97362899780273 8.855739593505859 35.13488006591797 6.978679656982422 C 33.29753875732422 5.103050231933594 31.15869140625 3.630779266357422 28.77774047851562 2.602741241455078 C 26.31465911865234 1.539241790771484 23.69784927368164 1 21 1 M 21 0 C 32.59798049926758 0 42 9.597900390625 42 21.4375 C 42 33.277099609375 32.59798049926758 42.875 21 42.875 C 9.402019500732422 42.875 0 33.277099609375 0 21.4375 C 0 9.597900390625 9.402019500732422 0 21 0 Z" stroke="none" fill="#cd001a"/>
    </g>
    <g id="Group_91353" data-name="Group 91353" transform="translate(11.635 11.93)">
      <path id="Path_67612" data-name="Path 67612" d="M27.4,30.8,18,21.4,27.4,12" transform="translate(-18 -12)" fill="none" stroke="#cd001a" stroke-linecap="round" stroke-linejoin="round" stroke-width="2"/>
      <path id="Path_67613" data-name="Path 67613" d="M30.8,18H12" transform="translate(-12 -8.599)" fill="none" stroke="#cd001a" stroke-linecap="round" stroke-linejoin="round" stroke-width="2"/>
    </g>
  </g>
</svg>
