<svg xmlns="http://www.w3.org/2000/svg" width="35" height="35" viewBox="0 0 35 35">
  <g id="Group_91857" data-name="Group 91857" transform="translate(-977 -3311)">
    <g id="Ellipse_5087" data-name="Ellipse 5087" transform="translate(977 3311)" fill="#a6a9ad" stroke="#fff" stroke-width="1">
      <circle cx="17.5" cy="17.5" r="17.5" stroke="none"/>
      <circle cx="17.5" cy="17.5" r="17" fill="none"/>
    </g>
    <g id="noun-energy-saving-2565157" transform="translate(902.046 3311.275)">
      <path id="Path_68179" data-name="Path 68179" d="M234.6,9.172a3.38,3.38,0,0,0-2.594,5.693,2.815,2.815,0,0,1,.8,1.915v.05h3.324v-.05a2.652,2.652,0,0,1,.757-1.87,3.357,3.357,0,0,0,.961-2.387A3.415,3.415,0,0,0,234.6,9.172Zm.893,3.66-.871,1.938a.189.189,0,0,1-.346-.155l.751-1.671h-1.414a.189.189,0,0,1-.173-.266l.835-1.9a.189.189,0,0,1,.347.153l-.718,1.63h1.416a.189.189,0,0,1,.173.267Z" transform="translate(-142.173 0)" fill="#cd001a"/>
      <path id="Path_68180" data-name="Path 68180" d="M281.947,279.5h-3.581a.191.191,0,0,0-.189.189v.674a1.98,1.98,0,1,0,3.959,0v-.674a.191.191,0,0,0-.189-.189Z" transform="translate(-187.859 -262.29)" fill="#cd001a"/>
      <path id="Path_68181" data-name="Path 68181" d="M379.75,175.771v4.192a1.276,1.276,0,0,1-.487,1.007l-2.849,2.254a.91.91,0,0,0-.32.51h-3.568v-1.355a1.28,1.28,0,0,1,.555-1.055l2.478-1.708a.868.868,0,0,1,1.2.207s0,0,0,.005a.625.625,0,0,1-.227.909l-.368.283a.189.189,0,0,0-.035.265.194.194,0,0,0,.267.035l.363-.28a1.021,1.021,0,0,0,.477-1l.343-.265a.91.91,0,0,0,.356-.717v-3.286a.908.908,0,1,1,1.817,0Z" transform="translate(-279.401 -160.765)"/>
      <path id="Path_68182" data-name="Path 68182" d="M368.329,486.026v1.555a.187.187,0,0,1-.189.189h-3.667a.187.187,0,0,1-.189-.189v-1.555a.187.187,0,0,1,.189-.189h3.667A.187.187,0,0,1,368.329,486.026Z" transform="translate(-271.405 -462.49)"/>
      <path id="Path_68183" data-name="Path 68183" d="M84.559,175.771v4.192a1.276,1.276,0,0,0,.487,1.007l2.849,2.254a.91.91,0,0,1,.321.51h3.568v-1.355a1.279,1.279,0,0,0-.555-1.055l-2.478-1.708a.868.868,0,0,0-1.2.207s0,0,0,.005a.625.625,0,0,0,.227.909l.368.283a.189.189,0,0,1,.035.265.194.194,0,0,1-.267.035l-.363-.28a1.021,1.021,0,0,1-.477-1l-.343-.265a.91.91,0,0,1-.356-.717v-3.286a.908.908,0,1,0-1.817,0Z" transform="translate(0 -160.765)"/>
      <path id="Path_68184" data-name="Path 68184" d="M199.7,486.026v1.555a.187.187,0,0,0,.189.189h3.667a.187.187,0,0,0,.189-.189v-1.555a.187.187,0,0,0-.189-.189h-3.667A.187.187,0,0,0,199.7,486.026Z" transform="translate(-111.717 -462.49)"/>
    </g>
  </g>
</svg>
