<svg id="Group_91400" data-name="Group 91400" xmlns="http://www.w3.org/2000/svg" width="33.24" height="34.452" viewBox="0 0 33.24 34.452">
  <g id="noun-verified-683098" transform="translate(0 0)">
    <path id="Path_46" data-name="Path 46" d="M106.3,43.5l-1.212,1.948.944,6.419h-4.093l.944-6.419L101.67,43.5l1.8-2.292-4.8-3.508V35.5a7.315,7.315,0,0,1-.91-2.488c-.347-.026-.808-.517-1.3-2.266-.676-2.386.042-2.738.65-2.681h0a6.271,6.271,0,0,1-.264-.982,6.983,6.983,0,0,1,0-3.142,6.837,6.837,0,0,1,1.835-3.217,8.834,8.834,0,0,1,1.677-1.4,6.6,6.6,0,0,1,1.654-.846,5.459,5.459,0,0,1,1.51-.287,6.18,6.18,0,0,1,3.776.8,4.675,4.675,0,0,1,1.809,1.718s3.04.215,2.013,6.393a6.3,6.3,0,0,1-.264.982c.608-.057,1.325.294.65,2.681-.495,1.745-.952,2.232-1.3,2.266h0a7.171,7.171,0,0,1-.91,2.462v2.266l-4.784,3.451ZM89.164,44.877a3.221,3.221,0,0,0-1.186,2.485v3.319a1.193,1.193,0,0,0,1.193,1.193h10.887l-2.311-12.62a51.855,51.855,0,0,0-8.583,5.623Z" transform="translate(-87.978 -18.158)"/>
  </g>
  <g id="noun-verified-683098-2" data-name="noun-verified-683098" transform="translate(19.643 21.093)">
    <path id="Path_46-2" data-name="Path 46" d="M144.747,68.3h0a.885.885,0,0,1,0,1.327l-.261.229a.888.888,0,0,0-.232,1.009l.134.318h0a.885.885,0,0,1-.579,1.2l-.337.092h0a.884.884,0,0,0-.636.808l-.019.347h0a.888.888,0,0,1-.885.831.906.906,0,0,1-.159,0l-.344-.06a.884.884,0,0,0-.932.445l-.169.318h0a.885.885,0,0,1-1.3.293l-.283-.232a.887.887,0,0,0-1.034,0l-.283.2h0a.885.885,0,0,1-1.3-.3l-.165-.318a.885.885,0,0,0-.929-.452l-.344.06h0a.923.923,0,0,1-.153,0,.888.888,0,0,1-.888-.824l-.016-.347a.885.885,0,0,0-.636-.811l-.334-.1h0a.884.884,0,0,1-.573-1.2l.137-.318a.885.885,0,0,0-.226-1.009l-.261-.232a.885.885,0,0,1,0-1.327l.261-.229a.885.885,0,0,0,.232-1.009l-.134-.318h0a.885.885,0,0,1,.57-1.2l.344-.092a.885.885,0,0,0,.637-.808l.019-.347a.884.884,0,0,1,1.04-.824l.344.06h0a.885.885,0,0,0,.932-.445l.169-.318a.884.884,0,0,1,1.3-.293l.283.2a.888.888,0,0,0,1.034,0l.283-.2a.885.885,0,0,1,1.3.3l.165.318h0a.884.884,0,0,0,.929.452l.344-.06a.884.884,0,0,1,1.037.83l.016.347a.884.884,0,0,0,.636.811l.334.1a.884.884,0,0,1,.573,1.2l-.137.318h0a.884.884,0,0,0,.226,1Zm-3.678-.592L140,66.631l-2.469,2.456-1.034-1.044-1.079,1.072,1.034,1.041,1.069,1.069,1.079-1.072Z" transform="translate(-131.45 -62.263)" fill="#cd001a"/>
  </g>
</svg>
