<svg xmlns="http://www.w3.org/2000/svg" width="35.387" height="33.485" viewBox="0 0 35.387 33.485">
  <g id="noun-accounting-5038376" transform="translate(0)">
    <path id="Path_16" data-name="Path 16" d="M86.244,27.562l-3.467,3.472h3.467Z" transform="translate(-81.97 -26.76)"/>
    <path id="Path_17" data-name="Path 17" d="M387.352,201.25H372.2a.586.586,0,0,0-.586.553v20.569a.58.58,0,0,0,.586.586h15.15a.592.592,0,0,0,.592-.564V201.8a.6.6,0,0,0-.592-.553Zm-12.126,19.827a.553.553,0,0,1-.553.553h-1.919a.553.553,0,0,1-.553-.553v-2.012a.553.553,0,0,1,.553-.553h1.919a.553.553,0,0,1,.553.553Zm0-4.468a.553.553,0,0,1-.553.553h-1.919a.553.553,0,0,1-.553-.553V214.6a.553.553,0,0,1,.553-.553h1.919a.553.553,0,0,1,.553.553Zm0-4.468a.553.553,0,0,1-.553.553h-1.919a.553.553,0,0,1-.553-.553v-2.007a.553.553,0,0,1,.553-.553h1.919a.553.553,0,0,1,.553.553Zm4.047,8.935a.553.553,0,0,1-.553.553H376.8a.553.553,0,0,1-.553-.553v-2.013a.553.553,0,0,1,.553-.553h1.9a.553.553,0,0,1,.553.553Zm0-4.468a.553.553,0,0,1-.553.553H376.8a.553.553,0,0,1-.553-.553V214.6a.553.553,0,0,1,.553-.553h1.9a.553.553,0,0,1,.553.553Zm0-4.468a.553.553,0,0,1-.553.553H376.8a.553.553,0,0,1-.553-.553v-2.007a.553.553,0,0,1,.553-.553h1.9a.553.553,0,0,1,.553.553Zm4.047,8.935a.553.553,0,0,1-.553.553H380.85a.553.553,0,0,1-.553-.553v-2.013a.553.553,0,0,1,.553-.553h1.9a.553.553,0,0,1,.553.553Zm0-4.468a.553.553,0,0,1-.553.553H380.85a.553.553,0,0,1-.553-.553V214.6a.553.553,0,0,1,.553-.553h1.9a.553.553,0,0,1,.553.553Zm0-4.468a.553.553,0,0,1-.553.553H380.85a.553.553,0,0,1-.553-.553v-2.007a.553.553,0,0,1,.553-.553h1.9a.553.553,0,0,1,.553.553Zm4.069,8.935a.553.553,0,0,1-.553.553H384.9a.553.553,0,0,1-.553-.553V214.6a.553.553,0,0,1,.553-.553h1.9a.553.553,0,0,1,.553.553Zm0-8.935a.553.553,0,0,1-.553.553H384.9a.553.553,0,0,1-.553-.553v-2.007a.553.553,0,0,1,.553-.553h1.9a.553.553,0,0,1,.553.553Zm0-4.573a.968.968,0,0,1-.968.968h-13.27a.968.968,0,0,1-.962-.968v-4.042a.962.962,0,0,1,.962-.962h13.27a.962.962,0,0,1,.968.962Z" transform="translate(-352.557 -189.472)" fill="#cd001a"/>
    <path id="Path_18" data-name="Path 18" d="M93.8,25.492V14.87H75.419v4.843a.553.553,0,0,1-.553.553H70V46H87.915V27.2a1.731,1.731,0,0,1,1.731-1.731ZM75.1,24.17a6.563,6.563,0,0,1,9.129,1.559.553.553,0,0,1-.127.8l-4.882,3.434a.553.553,0,0,1-.8-.138l-3.445-4.838a.608.608,0,0,1-.1-.426.591.591,0,0,1,.221-.392Zm6.513,12.507a6.508,6.508,0,0,1-3.782,1.211,6.39,6.39,0,0,1-1.106-.1,6.5,6.5,0,0,1-4.246-2.665,6.569,6.569,0,0,1,1.537-9.14.552.552,0,0,1,.409-.1.613.613,0,0,1,.387.21l6.917,9.792a.553.553,0,0,1-.116.791Zm4.788-4.65h0a6.468,6.468,0,0,1-2.676,4.241.553.553,0,0,1-.321.105h-.1a.553.553,0,0,1-.37-.227l-3.478-4.893a.553.553,0,0,1,.138-.8L84.475,27h0a.6.6,0,0,1,.42-.094.553.553,0,0,1,.37.232,6.5,6.5,0,0,1,1.117,4.893Z" transform="translate(-70 -14.87)"/>
    <path id="Path_19" data-name="Path 19" d="M239.66,230.265l2.765,3.92a5.414,5.414,0,0,0,1.161-6.685Z" transform="translate(-228.939 -214.064)"/>
    <path id="Path_20" data-name="Path 20" d="M175.41,162.982a5.424,5.424,0,0,0-6.707-1.145l2.765,3.926Z" transform="translate(-162.466 -151.906)"/>
    <path id="Path_21" data-name="Path 21" d="M108.891,218.337a5.425,5.425,0,0,0,7.061,1.581l-6.226-8.775a5.424,5.424,0,0,0-.835,7.194Z" transform="translate(-105.501 -198.741)"/>
    <path id="Path_22" data-name="Path 22" d="M398.65,240.1h12.9v3.688h-12.9Z" transform="translate(-377.882 -225.868)" fill="#cd001a"/>
    <path id="Path_23" data-name="Path 23" d="M394.19,346.32h1.327v1.438H394.19Z" transform="translate(-373.704 -325.375)" fill="#cd001a"/>
    <path id="Path_24" data-name="Path 24" d="M394.19,487.73h1.327v1.443H394.19Z" transform="translate(-373.704 -457.85)" fill="#cd001a"/>
    <path id="Path_25" data-name="Path 25" d="M394.19,416.94h1.327v1.443H394.19Z" transform="translate(-373.704 -391.533)" fill="#cd001a"/>
    <path id="Path_26" data-name="Path 26" d="M458.24,346.32h1.332v1.438H458.24Z" transform="translate(-433.707 -325.375)" fill="#cd001a"/>
    <path id="Path_27" data-name="Path 27" d="M458.24,416.94h1.332v1.443H458.24Z" transform="translate(-433.707 -391.533)" fill="#cd001a"/>
    <path id="Path_28" data-name="Path 28" d="M458.24,487.73h1.332v1.443H458.24Z" transform="translate(-433.707 -457.85)" fill="#cd001a"/>
    <path id="Path_29" data-name="Path 29" d="M522.29,346.32h1.332v1.438H522.29Z" transform="translate(-493.709 -325.375)" fill="#cd001a"/>
    <path id="Path_30" data-name="Path 30" d="M522.29,416.94h1.332v1.443H522.29Z" transform="translate(-493.709 -391.533)" fill="#cd001a"/>
    <path id="Path_31" data-name="Path 31" d="M522.29,487.73h1.332v1.443H522.29Z" transform="translate(-493.709 -457.85)" fill="#cd001a"/>
    <path id="Path_32" data-name="Path 32" d="M586.25,346.32h1.332v1.438H586.25Z" transform="translate(-553.628 -325.375)" fill="#cd001a"/>
    <path id="Path_33" data-name="Path 33" d="M586.25,416.94h1.332v5.911H586.25Z" transform="translate(-553.628 -391.533)" fill="#cd001a"/>
  </g>
</svg>
