<svg id="Group_91402" data-name="Group 91402" xmlns="http://www.w3.org/2000/svg" xmlns:xlink="http://www.w3.org/1999/xlink" width="33.461" height="33.485" viewBox="0 0 33.461 33.485">
  <defs>
    <clipPath id="clip-path">
      <rect id="Rectangle_3" data-name="Rectangle 3" width="33.461" height="33.485"/>
    </clipPath>
  </defs>
  <g id="Group_3" data-name="Group 3" clip-path="url(#clip-path)">
    <path id="Path_9" data-name="Path 9" d="M313.766,7.586c-.083.381-.147.767-.251,1.143A6.9,6.9,0,1,1,305.962.059,1.514,1.514,0,0,0,306.179,0h1.308a1.143,1.143,0,0,0,.184.056A7,7,0,0,1,313.537,5.2c.1.355.154.719.229,1.079Zm-7.923,2.622,4.541-4.537L309,4.277,305.776,7.5l-1.16-1.186-1.328,1.337,2.556,2.555" transform="translate(-280.305)" fill="#cd001a"/>
    <path id="Path_10" data-name="Path 10" d="M132.451,85.351v1.966h6.208l-.323,2.946h-.4c-3.194,0-6.387-.006-9.581,0a8.992,8.992,0,0,1-5.572-1.837.7.7,0,0,0-.385-.121c-.564-.013-1.129-.006-1.712-.006V74.506a8.757,8.757,0,0,0,2.909-1.7,8.441,8.441,0,0,0,2.951-6.354c.034-1.765.007-3.531.008-5.3v-.349c1.638-.2,2.922.192,3.621,1.646a3.363,3.363,0,0,1,.291,1.387c.026,2.779.013,5.558.013,8.337V72.6h9.791l-.319,2.944h-7.493V77.5h7.275l-.319,2.946h-6.955v1.959h6.738l-.321,2.945Z" transform="translate(-112.776 -56.779)"/>
    <rect id="Rectangle_2" data-name="Rectangle 2" width="5.912" height="15.653" transform="translate(0 17.811)"/>
  </g>
</svg>
