<svg id="Group_91398" data-name="Group 91398" xmlns="http://www.w3.org/2000/svg" xmlns:xlink="http://www.w3.org/1999/xlink" width="35.452" height="35.438" viewBox="0 0 35.452 35.438">
  <defs>
    <clipPath id="clip-path">
      <rect id="Rectangle_12" data-name="Rectangle 12" width="35.452" height="35.438" fill="#cd001a"/>
    </clipPath>
  </defs>
  <g id="Group_5" data-name="Group 5" clip-path="url(#clip-path)">
    <path id="Path_34" data-name="Path 34" d="M0,163.686V143.672H35.416v12.634a8.269,8.269,0,0,0-10.689-2.812,7.956,7.956,0,0,0-3.768,4.058,8.216,8.216,0,0,0,.578,7.636h-.29q-9.632,0-19.263,0a2.327,2.327,0,0,1-.47-.045A2.047,2.047,0,0,1,0,163.686m6.291-12.421c.448,0,.9.013,1.345,0a1.245,1.245,0,0,0,1.221-1.213c.02-.658.018-1.318,0-1.977a1.244,1.244,0,0,0-1.243-1.232q-1.285-.022-2.57,0A1.239,1.239,0,0,0,3.8,148.072c-.016.645-.015,1.292,0,1.937a1.257,1.257,0,0,0,1.263,1.254c.408.011.817,0,1.226,0m7.642-4.428c-.409,0-.817-.005-1.226,0a1.256,1.256,0,0,0-1.31,1.286q-.015.929,0,1.858a1.255,1.255,0,0,0,1.276,1.281q1.246.018,2.491,0A1.253,1.253,0,0,0,16.455,150q.019-.949,0-1.9a1.256,1.256,0,0,0-1.256-1.261c-.422-.011-.844,0-1.265,0m7.6,4.429c.422,0,.844.01,1.265,0A1.255,1.255,0,0,0,24.05,150q.02-.949,0-1.9A1.25,1.25,0,0,0,22.8,146.84c-.843-.014-1.687-.012-2.531,0a1.249,1.249,0,0,0-1.275,1.28q-.015.929,0,1.858a1.259,1.259,0,0,0,1.272,1.286c.422.01.844,0,1.265,0m7.6,0c.422,0,.844.01,1.265,0A1.255,1.255,0,0,0,31.646,150q.019-.949,0-1.9a1.25,1.25,0,0,0-1.253-1.263c-.843-.014-1.687-.012-2.531,0a1.249,1.249,0,0,0-1.274,1.281q-.015.929,0,1.858a1.259,1.259,0,0,0,1.273,1.285c.422.01.844,0,1.265,0m-22.78,5.7c.422,0,.844.011,1.265,0a1.25,1.25,0,0,0,1.244-1.231c.017-.645.015-1.292,0-1.937A1.25,1.25,0,0,0,7.6,152.535q-1.265-.019-2.531,0a1.243,1.243,0,0,0-1.264,1.25c-.014.632-.012,1.265,0,1.9a1.259,1.259,0,0,0,1.281,1.277c.422.009.844,0,1.265,0m7.579-4.428c-.435,0-.87-.012-1.3,0a1.239,1.239,0,0,0-1.221,1.21c-.019.658-.017,1.318,0,1.977a1.245,1.245,0,0,0,1.241,1.234q1.285.023,2.57,0a1.243,1.243,0,0,0,1.243-1.231c.017-.645.015-1.292,0-1.937a1.256,1.256,0,0,0-1.262-1.255c-.422-.011-.844,0-1.265,0m-7.6,10.124c.409,0,.817.006,1.226,0a1.259,1.259,0,0,0,1.307-1.291q.015-.929,0-1.858a1.255,1.255,0,0,0-1.28-1.276q-1.245-.016-2.491,0A1.249,1.249,0,0,0,3.8,159.5q-.018.949,0,1.9a1.256,1.256,0,0,0,1.259,1.258c.422.011.844,0,1.265,0m7.6,0c.409,0,.817.006,1.226,0a1.26,1.26,0,0,0,1.3-1.3q.014-.909,0-1.819a1.258,1.258,0,0,0-1.29-1.308q-1.246-.015-2.491,0a1.249,1.249,0,0,0-1.278,1.277q-.016.929,0,1.858a1.263,1.263,0,0,0,1.308,1.29c.409.007.817,0,1.226,0m6.343-8.86c.85,0,1.654.006,2.458,0a.633.633,0,0,0,.686-.614.623.623,0,0,0-.654-.644c-.857-.011-1.715-.018-2.571,0A1.216,1.216,0,0,0,19,153.693c-.029.7-.028,1.4,0,2.1a1.254,1.254,0,0,0,1.223,1.171.611.611,0,0,0,.641-.483.589.589,0,0,0-.35-.716c-.08-.04-.164-.07-.24-.1Z" transform="translate(0 -132.282)"/>
    <path id="Path_35" data-name="Path 35" d="M0,49.34a2.033,2.033,0,0,1,1.551-1.464,4.25,4.25,0,0,1,.748-.037c.907,0,1.814,0,2.765,0,0,.423,0,.814,0,1.206a2.532,2.532,0,1,0,5.063,0c0-.382,0-.764,0-1.178h5.064c0,.366,0,.743,0,1.119a2.534,2.534,0,1,0,5.063-.006c0-.367,0-.733,0-1.122h5.065c0,.415-.014.844,0,1.272a2.43,2.43,0,0,0,1.5,2.273,2.526,2.526,0,0,0,3.553-2.25c.012-.42,0-.841,0-1.318h1.032c.725,0,1.451-.012,2.176,0A1.857,1.857,0,0,1,35.434,49.6c.035,1.5.009,3,.009,4.561H0Z" transform="translate(0 -44.041)"/>
    <path id="Path_36" data-name="Path 36" d="M277.755,285.444a17.873,17.873,0,0,1-2.32-.721,6.939,6.939,0,1,1,3.965.651,1.3,1.3,0,0,0-.221.07Zm-.594-4.67c-.125-.151-.209-.27-.311-.373-.6-.608-1.2-1.218-1.818-1.816-.413-.4-1.027-.28-1.1.239a.959.959,0,0,0,.258.686c.77.813,1.573,1.594,2.366,2.385.52.519.773.521,1.287.007q2.488-2.487,4.975-4.975a1.955,1.955,0,0,0,.263-.293.624.624,0,0,0-.866-.867,1.974,1.974,0,0,0-.292.264l-4.389,4.387c-.1.1-.206.2-.371.354" transform="translate(-249.983 -250.006)" fill="#cd001a"/>
    <path id="Path_37" data-name="Path 37" d="M79.817,3.133c0-.606-.006-1.212,0-1.818a1.265,1.265,0,1,1,2.528,0q.012,1.858,0,3.716a1.264,1.264,0,1,1-2.527,0c-.009-.632,0-1.265,0-1.9" transform="translate(-73.487 0)"/>
    <path id="Path_38" data-name="Path 38" d="M207.573,3.145c0-.606-.005-1.212,0-1.818a1.266,1.266,0,1,1,2.529.016q.009,1.818,0,3.637a1.268,1.268,0,1,1-2.529-.016c0-.606,0-1.212,0-1.818" transform="translate(-191.115 -0.001)"/>
    <path id="Path_39" data-name="Path 39" d="M337.848,3.177c0,.606.005,1.212,0,1.818a1.266,1.266,0,1,1-2.529-.012q-.008-1.818,0-3.637a1.268,1.268,0,1,1,2.53.012c0,.606,0,1.212,0,1.818" transform="translate(-308.73 0)"/>
    <rect id="Rectangle_4" data-name="Rectangle 4" width="2.497" height="1.847" transform="translate(5.083 15.849)"/>
    <rect id="Rectangle_5" data-name="Rectangle 5" width="2.483" height="1.85" transform="translate(12.678 15.841)"/>
    <rect id="Rectangle_6" data-name="Rectangle 6" width="2.469" height="1.864" transform="translate(20.286 15.847)"/>
    <rect id="Rectangle_7" data-name="Rectangle 7" width="2.483" height="1.853" transform="translate(27.882 15.846)"/>
    <rect id="Rectangle_8" data-name="Rectangle 8" width="2.483" height="1.85" transform="translate(5.082 21.537)"/>
    <rect id="Rectangle_9" data-name="Rectangle 9" width="2.487" height="1.847" transform="translate(12.686 21.538)"/>
    <rect id="Rectangle_10" data-name="Rectangle 10" width="2.48" height="1.854" transform="translate(5.086 27.23)"/>
    <rect id="Rectangle_11" data-name="Rectangle 11" width="2.482" height="1.856" transform="translate(12.681 27.229)"/>
  </g>
</svg>
